<?xml version="1.0" standalone="no"?>
<!DOCTYPE svg PUBLIC "-//W3C//DTD SVG 20010904//EN"
 "http://www.w3.org/TR/2001/REC-SVG-20010904/DTD/svg10.dtd">
<svg version="1.0" xmlns="http://www.w3.org/2000/svg"
 width="225.000000pt" height="225.000000pt" viewBox="0 0 225.000000 225.000000"
 preserveAspectRatio="xMidYMid meet">
<metadata>
Created by potrace 1.16, written by Peter Selinger 2001-2019
</metadata>
<g transform="translate(0.000000,225.000000) scale(0.100000,-0.100000)"
fill="#000000" stroke="none">
<path d="M1090 1871 c-8 -5 -26 -13 -40 -19 -14 -5 -41 -17 -62 -26 -20 -9
-39 -16 -42 -16 -3 0 -29 -11 -58 -24 -29 -13 -83 -36 -121 -50 -37 -14 -82
-32 -100 -40 -17 -8 -81 -35 -142 -59 -121 -49 -201 -83 -315 -132 -41 -18
-96 -40 -122 -50 -27 -10 -48 -21 -48 -24 0 -6 26 -19 100 -47 25 -9 50 -20
55 -24 6 -4 28 -13 50 -20 22 -7 65 -24 95 -37 l55 -25 -45 -20 c-25 -11 -106
-45 -180 -75 -74 -30 -139 -59 -144 -64 -10 -9 -15 -7 207 -94 81 -31 149 -61
152 -65 3 -4 -21 -18 -53 -30 -31 -13 -76 -32 -100 -42 -23 -10 -74 -32 -113
-47 -39 -16 -70 -32 -71 -37 0 -5 53 -31 118 -58 66 -26 146 -59 179 -73 33
-13 69 -28 80 -33 11 -5 72 -29 135 -53 159 -62 390 -153 479 -188 84 -33 91
-34 134 -15 18 7 100 40 182 71 83 32 258 100 390 152 132 52 294 115 360 140
66 26 123 49 127 52 4 3 -76 39 -178 80 -101 40 -187 77 -189 81 -3 5 15 18
40 30 25 12 50 31 56 41 5 10 8 19 7 19 -16 -1 -303 -109 -583 -220 -71 -28
-160 -63 -196 -77 l-66 -25 -239 95 c-132 52 -300 119 -374 148 -279 108 -344
136 -347 146 -2 5 25 20 59 33 35 12 81 31 103 40 153 69 133 68 260 15 44
-18 123 -50 175 -70 52 -20 118 -46 145 -57 28 -11 75 -29 105 -40 30 -11 66
-26 81 -33 29 -16 18 -19 229 63 58 22 182 71 275 108 94 37 181 67 195 67 14
0 56 -13 94 -28 55 -22 70 -25 77 -14 6 10 -5 20 -39 37 -26 13 -51 27 -55 32
-5 4 75 40 177 80 102 40 186 76 186 80 0 4 -28 18 -62 30 -35 12 -81 31 -103
41 -22 10 -137 57 -255 105 -118 47 -264 107 -325 131 -216 88 -360 143 -370
142 -5 0 -17 -4 -25 -8z m185 -100 c66 -29 158 -67 205 -86 47 -18 191 -77
320 -130 129 -53 247 -101 263 -107 15 -5 27 -14 27 -18 0 -5 -24 -17 -52 -28
-102 -38 -393 -153 -428 -169 -19 -8 -75 -30 -125 -49 -49 -18 -146 -55 -215
-83 -133 -54 -162 -59 -207 -37 -15 8 -62 27 -103 42 -41 15 -99 37 -128 50
-29 13 -56 24 -61 24 -5 0 -58 20 -117 44 -140 56 -308 121 -408 157 -43 16
-85 34 -93 40 -17 15 -18 14 247 119 113 45 243 97 290 116 47 19 130 53 185
76 55 22 129 53 165 69 36 15 76 27 90 25 14 -2 79 -27 145 -55z m-670 -891
c72 -28 171 -67 220 -85 50 -18 136 -52 193 -74 l103 -42 70 26 c39 14 80 30
92 37 12 6 66 28 122 48 138 52 282 108 333 131 38 17 45 18 70 5 15 -8 68
-30 117 -49 50 -19 109 -44 133 -55 l43 -19 -33 -16 c-32 -15 -111 -46 -328
-128 -58 -22 -118 -46 -135 -54 -16 -7 -70 -29 -120 -48 -152 -57 -279 -108
-308 -123 -33 -16 -70 -18 -95 -4 -21 11 -146 60 -155 60 -4 0 -31 11 -61 25
-30 14 -57 25 -61 25 -3 0 -56 20 -118 44 -148 58 -354 137 -447 172 -95 35
-106 43 -83 59 10 6 65 29 123 51 58 21 121 47 140 56 19 9 40 15 45 13 6 -2
69 -27 140 -55z"/>
</g>
</svg>
